<svg id="Layer_1" data-name="Layer 1" xmlns="http://www.w3.org/2000/svg" viewBox="0 0 488.17 133.64"><defs><style>.cls-1,.cls-3{fill:#00aeef;}.cls-1,.cls-2,.cls-3{stroke:#00aeef;stroke-miterlimit:10;}.cls-1,.cls-2{stroke-width:2px;}.cls-2{fill:none;}.cls-3{font-size:48px;font-family:AlphaSmoke;}</style></defs><title>grubGenie</title><path class="cls-1" d="M106.12,132.3c2.13,2.43,4.23,4.85,6.38,7.24a5.8,5.8,0,0,0,1.41.95c2.24,1.32,4.6,2.73,4.58,5.65s-2.41,4.48-4.76,5.72a38.88,38.88,0,0,1-13.9,3.89c-9.52,1.12-19,1-28.25-1.82a27.73,27.73,0,0,1-7.69-3.67c-3.36-2.33-3.45-6.12,0-8.18s5.17-5.67,7.92-7.72c-4.54-2.16-9.28-4.11-13.71-6.62a24.29,24.29,0,0,1-10.39-11.4,13.1,13.1,0,0,1-11.57,5.46c-4.61-.24-8.53-5.64-7.16-10a7.62,7.62,0,0,1,2.29-3c2.72-2.49,2.68-3.5-.71-5s-6.7-2.45-9.94-3.9a59.34,59.34,0,0,1-8.75-4.64c-9.7-6.5-5.89-14.88.55-19.22A23.12,23.12,0,0,1,21.3,72.9a43,43,0,0,1,17.28.8c6.34,1.51,9.83,5.89,10.27,12.41,0.14,2,.24,4.08.49,6.1a7.1,7.1,0,0,0,.92,2A6.61,6.61,0,0,0,52,93.1c2.77-3.32,5.86-6.25,10-7.82a6,6,0,0,0,3.2-2.93C68.5,76.57,74,73.75,80.16,72c1.34-.38,2.73-0.62,4.66-1a17.27,17.27,0,0,0-1.27-3.69A8.12,8.12,0,0,1,84.9,56.81a7.81,7.81,0,0,1,10.17,0,8.16,8.16,0,0,1,1.35,10.44,11.44,11.44,0,0,0-1,3.08c4.51,1.84,8.68,3.21,12.53,5.2A16.08,16.08,0,0,1,116,84.87a2.28,2.28,0,0,0,.86,1.19c4.74,2.77,9.73,4.17,15.34,3.34,11.88-1.77,22.66-6.65,33.45-11.52,3.83-1.73,7.6-3.6,11.39-5.41a7.72,7.72,0,0,1,6.79-.11,29.65,29.65,0,0,0,6.65,1.45c2.13,0.36,4.3.47,6.42,0.87A2,2,0,0,1,198.27,76a2.07,2.07,0,0,1-.93,1.67,43.51,43.51,0,0,1-7.76,3.62c-13.78,3.92-25,12.11-35.87,21-7.22,5.88-14.36,11.87-21.74,17.54a74.19,74.19,0,0,1-25.44,12.39A2.48,2.48,0,0,0,106.12,132.3Zm-21-60.54L84,72c-5.78,1-11.12,2.94-15.33,7.13-1.84,1.83-2.93,4.47-4.88,6.15s-4.71,2.48-6.86,4c-1.68,1.21-2.89,3-4.45,4.45a3.7,3.7,0,0,1-2.59,1.09c-0.56-.11-1.14-1.44-1.27-2.29-0.32-2.08-.39-4.19-0.54-6.29-0.42-6.16-3.7-10.3-9.68-11.75a45.26,45.26,0,0,0-17.09-.85c-3.68.52-7.28,1.51-10,4.23-5.9,5.8-6.21,11.55.77,16.62,4.5,3.27,9.67,5.07,14.79,7a42.75,42.75,0,0,1,5.58,2.46c2,1.12,2.15,2.67.55,4.37-0.52.55-1.24,0.94-1.7,1.53a7.42,7.42,0,0,0-1.61,2.71c-0.74,3.63,2.41,8.06,6,8.43a11.66,11.66,0,0,0,10.8-4.5c0.42-.52.77-1.09,1.27-1.81,5.18,11.44,15.14,15.86,26.17,19.12-4,2-5.1,6.94-9.32,8.58a2.94,2.94,0,0,0-.85.76c-2.09,2.12-2.25,4.27.15,6a26.2,26.2,0,0,0,7.54,3.92c9.16,2.84,18.58,3,28,1.94,4.87-.57,9.68-1.57,14.06-4,2-1.1,4.12-2.32,4.16-4.83s-2.19-3.82-4.19-5a5.42,5.42,0,0,1-1.84-1.53,19,19,0,0,0-6.56-6.3c-0.45-.27-0.87-0.59-1.5-1a8.64,8.64,0,0,1,1.14-.52,80.93,80.93,0,0,0,31.2-16c8.54-6.89,17-13.93,25.62-20.66,6.18-4.81,12.64-9.25,20.18-11.85,4.44-1.54,8.8-3.33,13.15-5.12a16.59,16.59,0,0,0,2.84-1.9l-0.16-.76c-1.91-.29-3.82-0.56-5.73-0.88-2.74-.45-5.62-0.57-8.19-1.51a7.5,7.5,0,0,0-6.56.2c-1,.53-2.07,1-3.11,1.47-11.07,5.33-22.15,10.63-34.07,13.85-7.94,2.15-15.81,3.08-23.21-1.79a3.56,3.56,0,0,1-1.37-1.6,16.43,16.43,0,0,0-5.47-7.46,28.24,28.24,0,0,0-12.44-5.52c-2.77-.53-3.05-0.92-2.61-3.74a5.15,5.15,0,0,1,.94-1.8,7.16,7.16,0,0,0-1.13-9.24,7,7,0,0,0-9.11-.15,6.76,6.76,0,0,0-1.4,9.11C85.37,68.15,85.33,69.79,85.14,71.76Z" transform="translate(-5 -23.75)"/><path class="cls-2" d="M46.45,106.52c-5.11-2.8-10.34-5.41-15.3-8.47a96.2,96.2,0,0,1-10.4-7.74,5.65,5.65,0,0,1-2.33-5.55c0.83-4.11,4-5.86,8.27-4.49A23.56,23.56,0,0,1,39.41,90.2c2.56,3.94,4.7,8.17,6.88,12.34a14.84,14.84,0,0,1,.86,3.59ZM46.2,105.2a4.67,4.67,0,0,0-.19-1.37C43,97.93,40.45,91.76,35.73,87c-3-3-6.38-5.5-10.7-6.27a4.58,4.58,0,0,0-5.08,2.19,4.49,4.49,0,0,0,.33,5.65,21.31,21.31,0,0,0,3.18,3.29A109.75,109.75,0,0,0,46.2,105.2Z" transform="translate(-5 -23.75)"/><text class="cls-3" transform="translate(171.93 44.5)">GRUB GENIE</text></svg>